<!--?xml version="1.0" encoding="UTF-8" standalone="no"?-->
<!-- Created with Inkscape (http://www.inkscape.org/) -->

<svg version="1.1" id="svg1" width="311.897705078125" height="77.48355102539062" viewBox="0 0 311.89771 77.483551" sodipodi:docname="dealpigtext.svg" inkscape:version="1.4 (86a8ad7, 2024-10-11)" xmlns:inkscape="http://www.inkscape.org/namespaces/inkscape" xmlns:sodipodi="http://sodipodi.sourceforge.net/DTD/sodipodi-0.dtd" xmlns="http://www.w3.org/2000/svg" xmlns:svg="http://www.w3.org/2000/svg">
  <defs id="defs1"></defs>
  <sodipodi:namedview id="namedview1" pagecolor="#ffffff" bordercolor="#000000" borderopacity="0.25" inkscape:showpageshadow="2" inkscape:pageopacity="0.0" inkscape:pagecheckerboard="0" inkscape:deskcolor="#d1d1d1" showgrid="true" inkscape:zoom="1.0158767" inkscape:cx="32.484256" inkscape:cy="151.10101" inkscape:window-width="1920" inkscape:window-height="991" inkscape:window-x="-9" inkscape:window-y="-9" inkscape:window-maximized="1" inkscape:current-layer="svg1">
    <inkscape:grid id="grid445" units="px" originx="0.056083681" originy="-14.78407" spacingx="1" spacingy="1" empcolor="#0099e5" empopacity="0.30196078" color="#0099e5" opacity="0.14901961" empspacing="5" enabled="true" visible="true"></inkscape:grid>
    <inkscape:page x="0" y="0" width="311.89771" height="77.483551" id="page2" margin="0" bleed="0"></inkscape:page>
  </sodipodi:namedview>
  <g id="text439" inkscape:label="d" transform="matrix(0.92630058,0,0,1.0795632,-22.341573,-15.710596)" style="fill:#00ff00;stroke:#08bf02;stroke-width:2;stroke-dasharray:none;stroke-opacity:1">
    <path style="fill: rgb(0, 255, 0); fill-opacity: 0; stroke: rgb(8, 191, 2); stroke-width: 2; stroke-linecap: round; stroke-linejoin: round; stroke-opacity: 1;" d="m 65.51339,17.499841 v 41.03947 h 1.315367 q 2.743481,0 3.946103,1.089876 1.202622,1.052294 1.202622,2.781063 0,1.691186 -1.202622,2.781062 -1.16504,1.052295 -3.946103,1.052295 H 57.809094 V 64.36451 q -2.630735,1.540859 -5.524544,2.33008 -2.856227,0.78922 -5.937945,0.78922 -8.681427,0 -13.980479,-4.998397 -5.299052,-5.035978 -5.299052,-12.514783 0,-7.817042 5.562125,-13.341586 5.562126,-5.524544 13.567078,-5.524544 3.006554,0 5.900363,0.939549 2.893809,0.901966 5.712454,2.743481 v -9.583393 h -1.315368 q -2.781063,0 -3.983685,-1.052294 -1.165039,-1.089876 -1.165039,-2.781063 0,-1.728769 1.165039,-2.781063 1.202622,-1.089876 3.983685,-1.089876 z m -7.704296,32.696281 q 0,-4.772906 -3.344792,-8.080116 -3.344792,-3.30721 -8.192861,-3.30721 -4.810488,0 -8.155279,3.30721 -3.344792,3.30721 -3.344792,7.96737 0,4.246758 3.006554,6.990239 3.006555,2.705899 8.493517,2.705899 5.44938,0 8.493516,-2.705899 3.044137,-2.743481 3.044137,-6.877493 z" id="path1" class="svg-elem-1"></path>
    <path style="fill: rgb(0, 255, 0); stroke: rgb(8, 191, 2); stroke-width: 2; stroke-linecap: round; stroke-linejoin: round; stroke-opacity: 1;" d="m 56.494141,15.552734 c -2.106792,0 -3.934007,0.36588 -5.289063,1.591797 -1.170475,1.057205 -1.808594,2.636455 -1.808594,4.226563 0,1.574777 0.639421,3.133134 1.783203,4.203125 a 1.9481998,1.9481998 0 0 0 0.04687,0.04297 c 1.213702,1.061989 2.822052,1.393082 4.634766,1.464844 v 4.628906 C 54.804067,31.198192 53.77131,30.527952 52.6875,30.189453 c -2.114664,-0.6855 -4.28822,-1.033203 -6.492188,-1.033203 -5.784767,0 -10.899857,2.077543 -14.939453,6.089844 -4.034015,4.006759 -6.136718,9.051221 -6.136718,14.724609 0,5.445952 2.022547,10.238696 5.904296,13.927734 a 1.9481998,1.9481998 0 0 0 0.0059,0.0039 c 3.91897,3.696617 9.154929,5.529297 15.316406,5.529297 2.220112,0 4.378138,-0.285669 6.455078,-0.859375 h 0.002 c 1.323756,-0.361383 2.541985,-1.01939 3.789063,-1.597657 a 1.9481998,1.9481998 0 0 0 1.216797,1.216797 h 9.019531 c 2.099737,0 3.903087,-0.336356 5.251953,-1.554687 a 1.9481998,1.9481998 0 0 0 0.002,-0.002 c 1.173252,-1.063259 1.84375,-2.635403 1.84375,-4.22461 0,-1.598517 -0.665851,-3.182653 -1.857422,-4.232422 -1.199537,-1.080391 -2.80796,-1.434539 -4.607422,-1.511718 V 17.5 a 1.9481998,1.9481998 0 0 0 -1.947265,-1.947266 z m 0,3.894532 h 7.070312 v 39.091796 a 1.9481998,1.9481998 0 0 0 1.949219,1.949219 h 1.314453 c 1.571032,0 2.383086,0.35236 2.638672,0.583985 a 1.9481998,1.9481998 0 0 0 0.02539,0.02344 c 0.40389,0.353403 0.53711,0.613652 0.53711,1.314453 0,0.664535 -0.132108,0.947094 -0.560547,1.335938 -1.45e-4,1.31e-4 -0.0018,-1.31e-4 -0.002,0 -0.205259,0.184853 -1.031465,0.548828 -2.638672,0.548828 H 59.71675 a 1.9481998,1.9481998 0 0 0 -2.892578,-1.611328 c -1.610194,0.943113 -3.289436,1.649959 -5.052735,2.130859 a 1.9481998,1.9481998 0 0 0 -0.0059,0.002 c -1.730793,0.478245 -3.531736,0.71875 -5.419922,0.71875 -5.410286,0 -9.491103,-1.496811 -12.636719,-4.460937 l -0.0039,-0.0039 c -6.73e-4,-6.34e-4 -0.0013,-0.0013 -0.002,-0.002 -3.179376,-3.024306 -4.6875,-6.574832 -4.6875,-11.097656 0,-4.749334 1.604177,-8.599685 4.986328,-11.958984 3.376572,-3.353758 7.304857,-4.958985 12.193359,-4.958985 1.801452,0 3.558087,0.278574 5.298829,0.84375 a 1.9481998,1.9481998 0 0 0 0.02344,0.0078 c 1.741181,0.542705 3.481097,1.373301 5.226563,2.513672 a 1.9481998,1.9481998 0 0 0 3.013671,-1.63086 v -9.582031 a 1.9481998,1.9481998 0 0 0 -1.949218,-1.949219 h -1.314453 c -1.587368,0 -2.411741,-0.350047 -2.666016,-0.5625 -0.385516,-0.369195 -0.535156,-0.659647 -0.535156,-1.322265 0,-0.714918 0.140527,-0.990084 0.523437,-1.335938 a 1.9481998,1.9481998 0 0 0 0.002,-0.002 c 0.248105,-0.224845 1.076209,-0.585937 2.675782,-0.585937 z M 46.271484,36.861328 c -3.653409,0 -6.963516,1.336051 -9.52539,3.869141 -2.555155,2.526445 -3.921875,5.780687 -3.921875,9.353515 0,3.290879 1.266567,6.261407 3.640625,8.427735 a 1.9481998,1.9481998 0 0 0 0.0098,0.0098 c 2.442352,2.198117 5.818681,3.205078 9.796875,3.205078 3.955349,0 7.326291,-1.00987 9.78711,-3.197265 a 1.9481998,1.9481998 0 0 0 0.0098,-0.0078 c 2.390884,-2.154746 3.689454,-5.092017 3.689453,-8.326172 0,-3.636983 -1.360803,-6.930617 -3.923828,-9.464843 -2.564468,-2.535655 -5.887496,-3.869141 -9.5625,-3.869141 z m 0,3.894531 c 2.789089,0 4.927012,0.872135 6.822266,2.746094 1.896698,1.875387 2.767578,3.966468 2.767578,6.693359 0,2.274199 -0.732251,3.922547 -2.394531,5.423829 -1.597892,1.418745 -3.886957,2.21289 -7.195313,2.21289 -3.335583,0 -5.619241,-0.797044 -7.185547,-2.205078 -1.629168,-1.48988 -2.367187,-3.175317 -2.367187,-5.542969 0,-2.640718 0.86301,-4.698862 2.767578,-6.582031 1.897847,-1.876523 4.024582,-2.746094 6.785156,-2.746094 z" id="path2" class="svg-elem-2"></path>
  </g>
  <g id="text440" inkscape:label="e" transform="matrix(0.92630058,0,0,1.0795632,-22.341573,-15.710596)" style="fill:#00ff00;stroke:#08bf02;stroke-width:2;stroke-dasharray:none;stroke-opacity:1">
    <path style="fill: rgb(0, 255, 0); fill-opacity: 0; stroke: rgb(8, 191, 2); stroke-width: 2; stroke-linecap: round; stroke-linejoin: round; stroke-opacity: 1;" d="m 115.47974,53.040576 h -31.6064 q 1.202622,3.006554 4.246758,4.848069 3.081719,1.841515 8.305607,1.841515 4.284345,0 11.387325,-1.841515 2.93139,-0.751639 4.05885,-0.751639 1.54086,0 2.59315,1.089876 1.0523,1.089876 1.0523,2.743481 0,1.503278 -1.12746,2.555572 -1.50328,1.390531 -7.32848,2.668317 -5.8252,1.240204 -11.199414,1.240204 -9.245155,0 -14.807281,-5.223889 -5.524544,-5.223888 -5.524544,-12.85302 0,-8.117698 5.975527,-13.191258 6.013109,-5.111143 13.830151,-5.111143 4.697741,0 8.606261,1.653605 3.9461,1.653605 5.86278,3.570283 2.7059,2.781063 4.47225,6.877494 1.20262,2.856227 1.20262,6.61442 z m -8.53109,-7.704296 q -1.76635,-3.30721 -4.62258,-4.923233 -2.856228,-1.653605 -6.802331,-1.653605 -3.908521,0 -6.764748,1.653605 -2.856227,1.616023 -4.660159,4.923233 z" id="path3" class="svg-elem-3"></path>
    <path style="fill: rgb(0, 255, 0); stroke: rgb(8, 191, 2); stroke-width: 2; stroke-linecap: round; stroke-linejoin: round; stroke-opacity: 1;" d="m 95.335937,29.107422 c -5.635926,0 -10.765668,1.897009 -15.091796,5.574219 -4.37443,3.714137 -6.66211,8.786 -6.66211,14.675781 0,5.556296 2.107754,10.461676 6.134766,14.269531 a 1.9481998,1.9481998 0 0 0 0.0039,0.0039 c 4.100674,3.851309 9.610288,5.751953 16.140625,5.751953 3.732656,0 7.602658,-0.430993 11.605468,-1.283203 a 1.9481998,1.9481998 0 0 0 0.0117,-0.002 c 3.99366,-0.876029 6.52977,-1.565829 8.23437,-3.142578 a 1.9481998,1.9481998 0 0 0 0.006,-0.0059 c 1.08991,-1.017244 1.74609,-2.489329 1.74609,-3.978516 0,-1.515619 -0.55417,-3.016915 -1.59765,-4.097656 -1.03154,-1.068384 -2.50957,-1.683594 -3.9961,-1.683594 -1.18453,0 -2.52855,0.296483 -4.54101,0.8125 a 1.9481998,1.9481998 0 0 0 -0.006,0.002 c -4.64322,1.203799 -8.321305,1.777344 -10.898435,1.777344 -3.251519,0 -5.664362,-0.584614 -7.302734,-1.5625 -0.608154,-0.368438 -1.045388,-0.803054 -1.501953,-1.230469 h 27.859372 a 1.9481998,1.9481998 0 0 0 1.94726,-1.947265 v -3.269532 c 0,-2.713249 -0.43514,-5.185319 -1.35546,-7.371093 a 1.9481998,1.9481998 0 0 0 -0.006,-0.01563 c -1.25731,-2.915886 -2.87568,-5.420016 -4.86524,-7.464844 a 1.9481998,1.9481998 0 0 0 -0.0195,-0.01758 c -1.55123,-1.551227 -3.70894,-2.826335 -6.48047,-3.988282 l -0.006,-0.002 c -2.86209,-1.209921 -6.001184,-1.804687 -9.359369,-1.804687 z m 0,3.896484 c 2.903262,0 5.499903,0.504767 7.847653,1.498047 a 1.9481998,1.9481998 0 0 0 0.006,0.0039 c 2.48098,1.039648 4.22415,2.141313 5.22852,3.142578 1.61254,1.660209 2.9733,3.735504 4.06836,6.273438 0.6807,1.620665 1.04492,3.556249 1.04492,5.849609 v 1.320313 H 83.873047 a 1.9481998,1.9481998 0 0 0 -1.808594,2.671875 c 0.961307,2.403266 2.712939,4.379128 5.046875,5.791015 a 1.9481998,1.9481998 0 0 0 0.0098,0.0059 c 2.470528,1.476291 5.593193,2.117187 9.304687,2.117187 3.133899,0 7.046705,-0.651906 11.871095,-1.902343 l 0.006,-0.002 c 1.89107,-0.484404 3.25015,-0.6875 3.56836,-0.6875 0.56796,0 0.82185,0.109357 1.19336,0.494141 0.35959,0.372427 0.50391,0.701437 0.50391,1.390625 0,0.51337 -0.0962,0.743581 -0.50586,1.126953 -0.30371,0.278689 -2.64861,1.366532 -6.41797,2.19336 -3.75978,0.799684 -7.35388,1.195312 -10.783198,1.195312 -5.794188,0 -10.153752,-1.580032 -13.46875,-4.691406 l -0.002,-0.002 c -6.72e-4,-6.31e-4 -0.0013,-0.0013 -0.002,-0.002 -3.336173,-3.156432 -4.910156,-6.819647 -4.910156,-11.433594 0,-4.933816 1.694169,-8.656422 5.287109,-11.707031 a 1.9481998,1.9481998 0 0 0 0.002,0 C 86.459065,34.512637 90.549278,33.0038 95.336074,33.0038 Z m 0.1875,3.806641 c -2.878125,0 -5.497942,0.620703 -7.734375,1.914062 -2.241862,1.271384 -4.056852,3.216534 -5.40039,5.679688 a 1.9481998,1.9481998 0 0 0 1.710937,2.880859 h 22.849611 a 1.9481998,1.9481998 0 0 0 1.7168,-2.867187 c -1.31935,-2.47026 -3.12693,-4.422142 -5.37305,-5.695313 -2.23885,-1.293741 -4.870593,-1.912109 -7.769533,-1.912109 z m 0,3.896484 c 2.358634,0 4.258667,0.485075 5.826173,1.392578 a 1.9481998,1.9481998 0 0 0 0.0176,0.0098 c 0.59473,0.336495 1.11111,0.803822 1.625,1.279297 H 88.087891 c 0.517486,-0.475439 1.036731,-0.943145 1.630859,-1.279297 a 1.9481998,1.9481998 0 0 0 0.01563,-0.0098 c 1.570711,-0.909359 3.4581,-1.392578 5.789062,-1.392578 z" id="path4" class="svg-elem-4"></path>
  </g>
  <g id="text441" inkscape:label="a" transform="matrix(0.92630058,0,0,1.0795632,-22.341573,-15.710596)" style="fill:#00ff00;stroke:#08bf02;stroke-width:2;stroke-dasharray:none;stroke-opacity:1">
    <path style="fill: rgb(0, 255, 0); fill-opacity: 0; stroke: rgb(8, 191, 2); stroke-width: 2; stroke-linecap: round; stroke-linejoin: round; stroke-opacity: 1;" d="M 151.29312,66.169083 V 64.36515 q -2.89381,1.540859 -6.38893,2.292498 -3.49511,0.78922 -6.35134,0.78922 -6.20102,0 -10.07196,-3.269628 -3.87094,-3.30721 -3.87094,-7.290895 0,-4.848069 4.92323,-8.982081 4.96082,-4.171595 13.67983,-4.171595 3.49512,0 8.08011,0.751639 v -1.841515 q 0,-1.728769 -1.50327,-2.818645 -1.4657,-1.089876 -5.63729,-1.089876 -3.41996,0 -8.86934,1.35295 -2.02942,0.488565 -3.15688,0.488565 -1.54086,0 -2.63074,-1.089876 -1.05229,-1.127458 -1.05229,-2.856227 0,-0.97713 0.37582,-1.691187 0.37582,-0.714056 1.05229,-1.127458 0.67648,-0.450983 2.81865,-1.052294 2.85622,-0.78922 5.8252,-1.240203 2.96897,-0.488566 5.37421,-0.488566 7.17815,0 11.12425,3.119301 3.98369,3.081718 3.98369,8.455934 v 15.859576 h 1.31537 q 2.78106,0 3.9461,1.089876 1.20262,1.052294 1.20262,2.781063 0,1.691187 -1.20262,2.781063 -1.16504,1.052294 -3.9461,1.052294 z m 0,-13.792569 q -4.62257,-0.901967 -8.5311,-0.901967 -4.69774,0 -8.08011,2.292498 -2.10459,1.465695 -2.10459,2.968973 0,1.089876 1.01471,1.766351 1.8791,1.240203 5.14873,1.240203 2.78106,0 6.27618,-1.089876 3.5327,-1.089876 6.27618,-2.968972 z" id="path5" class="svg-elem-5"></path>
    <path style="fill: rgb(0, 255, 0); stroke: rgb(8, 191, 2); stroke-width: 2; stroke-linecap: round; stroke-linejoin: round; stroke-opacity: 1;" d="m 143.88867,29.082031 c -1.73243,0 -3.6213,0.175413 -5.67969,0.513672 -0.003,4.83e-4 -0.007,-4.83e-4 -0.01,0 -2.04626,0.311764 -4.05559,0.740328 -6.02735,1.285156 a 1.9481998,1.9481998 0 0 0 -0.008,0.002 c -1.48056,0.415597 -2.43346,0.700654 -3.33203,1.291016 -0.72667,0.451679 -1.33898,1.102474 -1.73633,1.857422 -0.42111,0.800112 -0.59961,1.696492 -0.59961,2.597656 0,1.547759 0.53578,3.070836 1.57618,4.185547 a 1.9481998,1.9481998 0 0 0 0.0449,0.04883 c 1.05115,1.051154 2.52324,1.660156 4.00976,1.660156 1.03302,0 2.17858,-0.198045 3.61133,-0.542968 a 1.9481998,1.9481998 0 0 0 0.0137,-0.002 c 3.54043,-0.879003 6.3773,-1.296875 8.40039,-1.296875 2.61142,0 4.2076,0.506531 4.47461,0.705078 a 1.9481998,1.9481998 0 0 0 0.0195,0.01367 c 0.45722,0.331479 0.47388,0.605035 0.52735,0.9375 -2.08575,-0.261018 -4.20718,-0.552735 -5.96094,-0.552735 -6.12335,0 -11.19612,1.486033 -14.93359,4.628906 -3.56798,2.996784 -5.61719,6.582011 -5.61719,10.472657 0,3.286747 1.67842,6.315758 4.55273,8.771484 a 1.9481998,1.9481998 0 0 0 0.01,0.0078 c 2.97236,2.510633 6.85173,3.728515 11.32812,3.728515 2.08055,0 4.33429,-0.284297 6.77149,-0.833984 1.71453,-0.369318 3.30507,-0.929193 4.83789,-1.574219 a 1.9481998,1.9481998 0 0 0 1.13086,1.130859 h 9.01953 c 2.09973,0 3.90309,-0.336357 5.25195,-1.554687 a 1.9481998,1.9481998 0 0 0 0.002,-0.002 c 1.17325,-1.06326 1.84375,-2.635403 1.84375,-4.22461 0,-1.591896 -0.66538,-3.168901 -1.84766,-4.21875 -1.19352,-1.102483 -2.80514,-1.452745 -4.61719,-1.527343 V 42.605469 c 0,-4.063155 -1.65046,-7.604359 -4.73828,-9.994141 -3.08016,-2.427975 -7.25861,-3.529297 -12.31836,-3.529297 z m 0,3.896485 c 4.50326,0 7.73803,0.976029 9.91797,2.699218 a 1.9481998,1.9481998 0 0 0 0.0156,0.01172 c 2.22232,1.719155 3.22656,3.814531 3.22656,6.916016 v 15.859375 a 1.9481998,1.9481998 0 0 0 1.94922,1.947265 h 1.31445 c 1.59957,0 2.40325,0.366149 2.61523,0.564453 a 1.9481998,1.9481998 0 0 0 0.0488,0.04492 c 0.40389,0.353403 0.53711,0.613651 0.53711,1.314453 0,0.664537 -0.13211,0.947095 -0.56055,1.335938 -1.4e-4,1.31e-4 -0.002,-1.31e-4 -0.002,0 -0.20526,0.184853 -1.03146,0.548828 -2.63867,0.548828 h -7.1543 a 1.9481998,1.9481998 0 0 0 -2.78125,-1.574219 c -1.75801,0.936086 -3.71219,1.640622 -5.88281,2.107422 a 1.9481998,1.9481998 0 0 0 -0.0195,0.0039 c -2.21886,0.501035 -4.19714,0.740235 -5.92188,0.740235 -3.78898,0 -6.62032,-0.960302 -8.80859,-2.806641 -2.2841,-1.952654 -3.18555,-3.780991 -3.18555,-5.804687 0,-2.572644 1.2316,-4.975378 4.22657,-7.490235 a 1.9481998,1.9481998 0 0 0 0.002,-0.002 c 2.87695,-2.419253 6.92378,-3.71289 12.42578,-3.71289 2.19044,0 4.78695,0.2363 7.76563,0.724609 a 1.9481998,1.9481998 0 0 0 2.26171,-1.921875 v -1.841797 c 0,-1.712037 -0.90549,-3.370042 -2.29687,-4.384766 -1.68603,-1.249111 -3.84521,-1.470703 -6.79102,-1.470703 -2.53341,0 -5.60562,0.483767 -9.32422,1.40625 -1.27313,0.306497 -2.2309,0.433594 -2.70117,0.433594 -0.55185,0 -0.83435,-0.126891 -1.21875,-0.501953 -0.34722,-0.38041 -0.51758,-0.754457 -0.51758,-1.496094 0,-0.401675 0.0724,-0.631239 0.15235,-0.783203 0.0984,-0.186867 0.18163,-0.273972 0.34375,-0.373047 a 1.9481998,1.9481998 0 0 0 0.0644,-0.04102 c -0.006,0.0041 0.90783,-0.414888 2.25781,-0.794922 l 0.008,-0.002 c 1.82647,-0.504353 3.69026,-0.900613 5.59179,-1.189454 a 1.9481998,1.9481998 0 0 0 0.0234,-0.0039 c 1.89615,-0.312025 3.58505,-0.46289 5.05664,-0.46289 z m -1.12695,16.548828 c -3.4487,0 -6.57025,0.863626 -9.17188,2.626953 a 1.9481998,1.9481998 0 0 0 -0.0215,0.01367 c -1.65936,1.155623 -2.93945,2.657104 -2.93945,4.568359 0,1.331136 0.80459,2.667904 1.88281,3.386719 a 1.9481998,1.9481998 0 0 0 0.008,0.0059 c 1.68626,1.112926 3.79465,1.5625 6.2207,1.5625 2.10675,0 4.3837,-0.408692 6.85157,-1.177734 l 0.006,-0.002 c 2.51834,-0.777527 4.79274,-1.848012 6.79687,-3.220703 a 1.9481998,1.9481998 0 0 0 0.8457,-1.607422 v -3.306641 a 1.9481998,1.9481998 0 0 0 -1.57421,-1.912109 c -3.18301,-0.621075 -6.14877,-0.9375 -8.9043,-0.9375 z m 0,3.894531 c 1.98194,0 4.25947,0.322069 6.58398,0.699219 v 0.355468 c -1.4737,0.908681 -3.03511,1.738392 -4.90234,2.314454 a 1.9481998,1.9481998 0 0 0 -0.006,0.002 c -2.1899,0.682872 -4.0977,1.001953 -5.69727,1.001953 -1.93104,0 -3.25086,-0.376417 -4.07031,-0.916016 -0.001,-6.72e-4 -0.003,-0.0013 -0.004,-0.002 -0.23996,-0.155415 -0.14063,-0.02269 -0.14063,-0.140625 0,-0.09257 0.13373,-0.573124 1.26172,-1.363281 1.90594,-1.288532 4.16496,-1.951172 6.97461,-1.951172 z" id="path6" class="svg-elem-6"></path>
  </g>
  <g id="text442" inkscape:label="l" transform="matrix(0.92630058,0,0,1.0795632,-22.341573,-15.710596)" style="fill:#00ff00;stroke:#08bf02;stroke-width:2;stroke-dasharray:none;stroke-opacity:1">
    <path style="fill: rgb(0, 255, 0); fill-opacity: 0; stroke: rgb(8, 191, 2); stroke-width: 2; stroke-linecap: round; stroke-linejoin: round; stroke-opacity: 1;" d="m 195.28996,17.621911 v 41.03947 h 9.24516 q 2.78106,0 3.9461,1.089876 1.20262,1.052294 1.20262,2.781063 0,1.691187 -1.20262,2.781063 -1.16504,1.052294 -3.9461,1.052294 h -26.19461 q -2.78106,0 -3.98368,-1.052294 -1.16504,-1.089876 -1.16504,-2.818645 0,-1.691187 1.16504,-2.743481 1.20262,-1.089876 3.98368,-1.089876 h 9.24516 V 25.326207 h -6.20102 q -2.74348,0 -3.9461,-1.052294 -1.20262,-1.089876 -1.20262,-2.818645 0,-1.691187 1.16504,-2.743481 1.20262,-1.089876 3.98368,-1.089876 z" id="path7" class="svg-elem-7"></path>
    <path style="fill: rgb(0, 255, 0); stroke: rgb(8, 191, 2); stroke-width: 2; stroke-linecap: round; stroke-linejoin: round; stroke-opacity: 1;" d="m 181.38477,15.673828 c -2.10747,0 -3.93388,0.364929 -5.28907,1.591797 -1.16191,1.049472 -1.80859,2.614675 -1.80859,4.189453 0,1.604223 0.66224,3.190978 1.84375,4.261719 a 1.9481998,1.9481998 0 0 0 0.0254,0.02344 c 1.35421,1.184935 3.15047,1.533204 5.22852,1.533203 h 4.25195 v 29.439454 h -7.29688 c -2.10851,0 -3.93562,0.367379 -5.29101,1.595703 -1.15988,1.049453 -1.80469,2.612232 -1.80469,4.185547 0,1.590108 0.62931,3.164565 1.78125,4.242187 a 1.9481998,1.9481998 0 0 0 0.0488,0.04297 c 1.36177,1.191556 3.16589,1.535156 5.26562,1.535156 h 26.19532 c 2.09973,0 3.90308,-0.336358 5.25195,-1.554687 a 1.9481998,1.9481998 0 0 0 0.002,-0.0039 c 1.17325,-1.063259 1.84375,-2.633449 1.84375,-4.222656 0,-1.592822 -0.66603,-3.170862 -1.84961,-4.220703 -1.33906,-1.236071 -3.15261,-1.599609 -5.24804,-1.599609 h -7.29688 V 17.621094 a 1.9481998,1.9481998 0 0 0 -1.94922,-1.947266 z m 0,3.896484 h 11.95703 v 39.091797 a 1.9481998,1.9481998 0 0 0 1.94726,1.947266 h 9.2461 c 1.59957,0 2.40325,0.366149 2.61523,0.564453 a 1.9481998,1.9481998 0 0 0 0.0488,0.04297 c 0.40389,0.353402 0.53711,0.615604 0.53711,1.316406 0,0.664535 -0.13211,0.945143 -0.56055,1.333984 -1.4e-4,1.31e-4 -0.002,-1.31e-4 -0.002,0 -0.20526,0.184854 -1.03147,0.550782 -2.63867,0.550782 h -26.19532 c -1.58736,0 -2.41174,-0.350048 -2.66601,-0.5625 -0.37891,-0.362967 -0.53321,-0.664392 -0.53321,-1.361328 0,-0.680139 0.13002,-0.943289 0.52149,-1.296875 a 1.9481998,1.9481998 0 0 0 0.002,-0.002 c 0.24811,-0.224843 1.07621,-0.585937 2.67578,-0.585937 h 9.2461 a 1.9481998,1.9481998 0 0 0 1.94726,-1.947266 V 25.326172 a 1.9481998,1.9481998 0 0 0 -1.94726,-1.947266 h -6.20117 c -1.56949,0 -2.39117,-0.347984 -2.64649,-0.566406 -0.40936,-0.375249 -0.55469,-0.66569 -0.55469,-1.357422 0,-0.680138 0.13197,-0.943288 0.52344,-1.296875 a 1.9481998,1.9481998 0 0 0 0.002,-0.0039 c 0.24811,-0.224844 1.07622,-0.583985 2.67579,-0.583985 z" id="path8" class="svg-elem-8"></path>
  </g>
  <g id="text443" inkscape:label="p" transform="matrix(0.92630058,0,0,1.0795632,-22.341573,-15.710596)" style="fill:#00ff00;stroke:#08bf02;stroke-width:2;stroke-dasharray:none;stroke-opacity:1">
    <path style="fill: rgb(0, 255, 0); fill-opacity: 0; stroke: rgb(8, 191, 2); stroke-width: 2; stroke-linecap: round; stroke-linejoin: round; stroke-opacity: 1;" d="m 229.81895,62.215568 v 12.627529 h 4.62258 q 2.78107,0 3.94611,1.052294 1.20262,1.089876 1.20262,2.818645 0,1.691187 -1.20262,2.743481 -1.16504,1.089876 -3.94611,1.089876 h -13.64224 q -2.78106,0 -3.98368,-1.089876 -1.16504,-1.052294 -1.16504,-2.743481 0,-1.728769 1.20262,-2.818645 1.20262,-1.052294 3.9461,-1.052294 h 1.31537 V 40.042228 h -1.31537 q -2.78106,0 -3.98368,-1.052294 -1.16504,-1.089876 -1.16504,-2.818645 0,-1.691187 1.16504,-2.743481 1.20262,-1.089876 3.98368,-1.089876 h 9.01966 v 2.630735 q 2.7059,-1.841514 5.59971,-2.743481 2.89381,-0.901966 5.93795,-0.901966 7.8922,0 13.45433,5.374216 5.56213,5.336634 5.56213,12.25171 0,7.629132 -6.57684,12.589947 -5.48696,4.134012 -12.36446,4.134012 -2.96897,0 -5.86278,-0.864384 -2.89381,-0.864384 -5.75004,-2.593153 z m 22.84982,-13.22884 q 0,-1.616023 -1.27779,-4.096431 -1.27778,-2.517989 -3.9461,-4.171594 -2.63073,-1.691187 -6.20102,-1.691187 -5.75003,0 -9.13241,4.321922 -2.2925,2.968973 -2.2925,5.712454 0,3.081718 3.26963,6.013109 3.30721,2.893808 8.15528,2.893808 4.88565,0 8.15528,-2.893808 3.26963,-2.893809 3.26963,-6.088273 z" id="path9" class="svg-elem-9"></path>
    <path style="fill: rgb(0, 255, 0); stroke: rgb(8, 191, 2); stroke-width: 2; stroke-linecap: round; stroke-linejoin: round; stroke-opacity: 1;" d="m 241.35742,29.375 c -2.22182,0 -4.40311,0.33118 -6.51758,0.990234 -1.21263,0.377964 -2.39144,0.898755 -3.54882,1.496094 a 1.9481998,1.9481998 0 0 0 -1.47266,-1.470703 h -9.01953 c -2.10747,0 -3.93388,0.364929 -5.28906,1.591797 -1.16192,1.049472 -1.80665,2.614675 -1.80665,4.189453 0,1.590108 0.62931,3.162612 1.78125,4.240234 a 1.9481998,1.9481998 0 0 0 0.0488,0.04297 c 1.2137,1.06199 2.8201,1.393082 4.63282,1.464844 v 31.044922 c -1.79348,0.07343 -3.39001,0.409857 -4.59571,1.464843 a 1.9481998,1.9481998 0 0 0 -0.0254,0.02148 c -1.1815,1.070741 -1.84179,2.659449 -1.8418,4.263672 0,1.574777 0.64473,3.138028 1.80665,4.1875 1.35518,1.226868 3.18159,1.59375 5.28906,1.59375 h 13.64258 c 2.09543,0 3.90898,-0.363537 5.24804,-1.59961 1.17513,-1.042222 1.84961,-2.6038 1.84961,-4.18164 0,-1.604223 -0.66224,-3.192931 -1.84375,-4.263672 a 1.9481998,1.9481998 0 0 0 -0.002,-0.002 c -1.34887,-1.218332 -3.15221,-1.554688 -5.25195,-1.554688 h -2.67383 v -7.679687 c 1.0807,0.495028 2.14448,1.132469 3.24414,1.460937 2.10426,0.628544 4.25156,0.945313 6.41992,0.945313 4.97531,0 9.56672,-1.534 13.53711,-4.525391 a 1.9481998,1.9481998 0 0 0 0,-0.002 c 4.76784,-3.596311 7.35156,-8.498672 7.35156,-14.144531 0,-5.130121 -2.1482,-9.804527 -6.15625,-13.652344 C 252.12488,31.39415 247.06106,29.375 241.35742,29.375 Z m 0,3.896484 c 4.8193,0 8.72262,1.563275 12.09961,4.826172 a 1.9481998,1.9481998 0 0 0 0.006,0.0059 c 3.40478,3.266745 4.96289,6.757944 4.96289,10.845703 0,4.526316 -1.80145,8.017047 -5.80273,11.035156 v -0.002 c -3.34556,2.520625 -6.99672,3.742187 -11.19141,3.742187 -1.79027,0 -3.55053,-0.259235 -5.30469,-0.783203 -1.75637,-0.524629 -3.52095,-1.316496 -5.29883,-2.392578 a 1.9481998,1.9481998 0 0 0 -2.95703,1.666016 V 74.84375 a 1.9481998,1.9481998 0 0 0 1.94727,1.947266 h 4.62305 c 1.60835,0 2.4361,0.366054 2.64062,0.550781 0.41911,0.380783 0.56055,0.674296 0.56055,1.373047 0,0.665709 -0.12457,0.916373 -0.53711,1.277343 a 1.9481998,1.9481998 0 0 0 -0.0488,0.04297 c -0.21198,0.198303 -1.01566,0.564453 -2.61523,0.564453 H 220.799 c -1.59957,0 -2.42768,-0.361093 -2.67578,-0.585937 a 1.9481998,1.9481998 0 0 0 -0.002,-0.002 c -0.39147,-0.353587 -0.52343,-0.616737 -0.52343,-1.296875 0,-0.690897 0.14842,-0.982824 0.55664,-1.357422 0.25532,-0.218422 1.07505,-0.566406 2.64453,-0.566406 h 1.3164 a 1.9481998,1.9481998 0 0 0 1.94714,-1.94722 V 40.042969 a 1.9481998,1.9481998 0 0 0 -1.94727,-1.949219 h -1.3164 c -1.58737,0 -2.41174,-0.350048 -2.66602,-0.5625 -0.37889,-0.362957 -0.53515,-0.662452 -0.53515,-1.359375 0,-0.680138 0.13196,-0.945242 0.52343,-1.298828 a 1.9481998,1.9481998 0 0 0 0.002,-0.002 c 0.2481,-0.224844 1.07621,-0.585938 2.67578,-0.585938 h 7.07226 v 0.683594 a 1.9481998,1.9481998 0 0 0 3.04297,1.611328 c 1.65921,-1.129179 3.34967,-1.955526 5.08399,-2.496094 1.74394,-0.543567 3.52234,-0.8125 5.35937,-0.8125 z m -0.11328,3.808594 c -4.32142,0 -8.0809,1.765167 -10.66602,5.068359 a 1.9481998,1.9481998 0 0 0 -0.008,0.0098 c -1.70572,2.209051 -2.69922,4.532714 -2.69922,6.904297 0,2.743408 1.48559,5.282137 3.91797,7.462891 a 1.9481998,1.9481998 0 0 0 0.0176,0.01563 c 2.55981,2.239836 5.81787,3.375 9.4375,3.375 3.64171,0 6.90497,-1.134462 9.44531,-3.382813 2.44615,-2.164978 3.92774,-4.752618 3.92774,-7.546875 0,-1.589539 -0.56275,-3.179404 -1.49219,-4.984375 -1.01887,-2.004712 -2.61209,-3.668035 -4.63867,-4.927734 -2.08868,-1.339444 -4.55914,-1.994141 -7.24219,-1.994141 z m 0,3.894531 c 2.07261,0 3.72986,0.47212 5.14648,1.382813 a 1.9481998,1.9481998 0 0 0 0.0273,0.01758 c 1.5209,0.942532 2.55422,2.052329 3.23633,3.396484 a 1.9481998,1.9481998 0 0 0 0.006,0.01172 c 0.77298,1.500498 1.06054,2.639206 1.06054,3.203125 0,1.465029 -0.69992,2.937426 -2.61328,4.630859 -1.81916,1.61006 -3.99079,2.404297 -6.86328,2.404297 -2.83991,0 -5.01539,-0.792899 -6.86328,-2.40625 -1.91845,-1.723329 -2.61328,-3.189886 -2.61328,-4.552734 0,-1.283426 0.53483,-2.767385 1.8789,-4.511719 1.92473,-2.45937 4.25237,-3.576172 7.59766,-3.576172 z" id="path10" class="svg-elem-10"></path>
  </g>
  <g id="text444" inkscape:label="i" transform="matrix(0.92630058,0,0,1.0795632,-22.341573,-15.710596)" style="fill:#00ff00;stroke:#08bf02;stroke-width:2;stroke-dasharray:none;stroke-opacity:1">
    <path style="fill: rgb(0, 255, 0); fill-opacity: 0; stroke: rgb(8, 191, 2); stroke-width: 2; stroke-linecap: round; stroke-linejoin: round; stroke-opacity: 1;" d="m 288.77657,21.666719 v 8.155279 h -9.17 v -8.155279 z m 1.05229,14.619371 v 26.420098 h 9.24515 q 2.78107,0 3.94611,1.089876 1.20262,1.052294 1.20262,2.781063 0,1.691187 -1.20262,2.781063 -1.16504,1.052294 -3.94611,1.052294 h -26.1946 q -2.78106,0 -3.98369,-1.052294 -1.16504,-1.089876 -1.16504,-2.818645 0,-1.691187 1.16504,-2.743481 1.20263,-1.089876 3.98369,-1.089876 h 9.24515 V 43.990386 h -6.20102 q -2.74348,0 -3.9461,-1.052294 -1.20262,-1.089876 -1.20262,-2.818645 0,-1.691187 1.16504,-2.743481 1.20262,-1.089876 3.98368,-1.089876 z" id="path11" class="svg-elem-11"></path>
    <path style="fill: rgb(0, 255, 0); stroke: rgb(8, 191, 2); stroke-width: 2; stroke-linecap: round; stroke-linejoin: round; stroke-opacity: 1;" d="m 279.60742,19.71875 a 1.9481998,1.9481998 0 0 0 -1.94922,1.947266 v 8.15625 a 1.9481998,1.9481998 0 0 0 1.94922,1.947265 h 9.16992 a 1.9481998,1.9481998 0 0 0 1.94727,-1.947265 v -8.15625 a 1.9481998,1.9481998 0 0 0 -1.94727,-1.947266 z m 1.94727,3.896484 h 5.27343 v 4.257813 h -5.27343 z m -5.63086,10.722657 c -2.10679,0 -3.93401,0.365877 -5.28906,1.591796 -1.16192,1.049473 -1.8086,2.614676 -1.8086,4.189454 0,1.604223 0.66225,3.190977 1.84375,4.261718 a 1.9481998,1.9481998 0 0 0 0.0254,0.02344 c 1.35421,1.184934 3.15047,1.533203 5.22852,1.533203 h 4.25195 v 14.820312 h -7.29687 c -2.10851,10e-7 -3.93563,0.367386 -5.29102,1.595704 -1.15988,1.049453 -1.80469,2.612232 -1.80469,4.185546 0,1.590108 0.62931,3.164566 1.78125,4.242188 a 1.9481998,1.9481998 0 0 0 0.0488,0.04297 c 1.36178,1.191549 3.16589,1.535156 5.26563,1.535156 h 26.19531 c 2.09974,0 3.90308,-0.336356 5.25195,-1.554688 a 1.9481998,1.9481998 0 0 0 0.002,-0.0039 c 1.17326,-1.063259 1.8418,-2.635403 1.8418,-4.224609 0,-1.592822 -0.66408,-3.168909 -1.84765,-4.21875 -1.33907,-1.236073 -3.15262,-1.59961 -5.24805,-1.59961 h -7.29688 V 36.285156 a 1.9481998,1.9481998 0 0 0 -1.94922,-1.947265 z m 0,3.896484 h 11.95703 v 24.472656 a 1.9481998,1.9481998 0 0 0 1.94726,1.947266 h 9.2461 c 1.59958,0 2.40325,0.36615 2.61523,0.564453 a 1.9481998,1.9481998 0 0 0 0.0488,0.04297 c 0.40389,0.353402 0.53711,0.613651 0.53711,1.314453 0,0.664536 -0.13211,0.947094 -0.56055,1.335937 -1.4e-4,1.31e-4 -0.002,-1.31e-4 -0.002,0 -0.20526,0.184852 -1.03146,0.550782 -2.63867,0.550782 h -26.19531 c -1.58737,0 -2.41174,-0.350042 -2.66602,-0.5625 -0.37892,-0.362973 -0.53516,-0.664384 -0.53516,-1.361329 0,-0.680138 0.13197,-0.943288 0.52344,-1.296875 a 1.9481998,1.9481998 0 0 0 0.002,-0.002 c 0.24812,-0.22485 1.07622,-0.585937 2.67579,-0.585937 h 9.24609 a 1.9481998,1.9481998 0 0 0 1.94727,-1.947266 V 43.990234 A 1.9481998,1.9481998 0 0 0 282.125,42.042969 h -6.20117 c -1.56949,0 -2.39116,-0.347984 -2.64649,-0.566407 -0.40936,-0.375248 -0.55468,-0.665689 -0.55468,-1.357421 0,-0.680139 0.13196,-0.943289 0.52343,-1.296875 a 1.9481998,1.9481998 0 0 0 0.002,-0.002 c 0.2481,-0.224843 1.07621,-0.585937 2.67578,-0.585937 z" id="path12" class="svg-elem-12"></path>
  </g>
  <g id="text445" inkscape:label="g" transform="matrix(0.89473768,0.28674273,-0.23361464,1.0427779,-22.341573,-15.710596)" style="fill:#00ff00;stroke:#08bf02;stroke-width:2;stroke-dasharray:none;stroke-opacity:1">
    <path style="fill: rgb(0, 255, 0); fill-opacity: 0; stroke: rgb(8, 191, 2); stroke-width: 2; stroke-linecap: round; stroke-linejoin: round; stroke-opacity: 1;" d="m 342.42707,-54.386324 v -2.292498 h 9.01966 q 2.78107,0 3.94611,1.089876 1.20262,1.052294 1.20262,2.781063 0,1.691187 -1.20262,2.781063 -1.16504,1.052294 -3.94611,1.052294 h -1.31537 v 28.036121 q 0,4.058849 -1.72876,7.065403 -1.69119,3.044137 -5.22389,5.2238887 -3.5327,2.179752 -7.96737,2.179752 h -8.71901 q -2.78106,0 -3.98369,-1.089876 -1.16504,-1.0522941 -1.16504,-2.7434807 0,-1.728769 1.16504,-2.818645 1.20263,-1.052294 3.98369,-1.052294 h 8.49352 q 3.5327,0 5.48696,-1.916679 1.95426,-1.916678 1.95426,-4.848069 v -3.758193 q -2.55557,1.653605 -5.22389,2.480407 -2.63074,0.826803 -5.4118,0.826803 -7.85462,0 -13.15367,-5.223889 -5.29906,-5.26147 -5.29906,-12.965766 0,-7.741878 5.29906,-12.965767 5.29905,-5.26147 13.15367,-5.26147 2.93139,0 5.56213,0.864384 2.66831,0.826803 5.07356,2.555572 z m -0.0376,14.769699 q 0,-4.246758 -3.15689,-7.366059 -3.1193,-3.1193 -7.51638,-3.1193 -4.39709,0 -7.55397,3.1193 -3.1193,3.119301 -3.1193,7.366059 0,4.28434 3.1193,7.40364 3.15688,3.081719 7.55397,3.081719 4.39708,0 7.51638,-3.081719 3.15689,-3.1193 3.15689,-7.40364 z" id="path13" class="svg-elem-13"></path>
    <path style="fill: rgb(0, 255, 0); stroke: rgb(8, 191, 2); stroke-width: 2; stroke-linecap: round; stroke-linejoin: round; stroke-opacity: 1;" d="m 331.79102,-59.753906 c -5.66943,0 -10.64787,1.978147 -14.52149,5.822265 -6.7e-4,6.59e-4 -10e-4,0.0013 -0.002,0.002 -6.7e-4,6.59e-4 -0.001,0.0013 -0.002,0.002 -3.8727,3.819797 -5.875,8.745841 -5.875,14.349609 0,5.582814 2.00495,10.505054 5.875,14.347656 a 1.9481998,1.9481998 0 0 0 0.004,0.0039 c 3.87538,3.82041 8.85322,5.785156 14.52149,5.785156 2.04438,0 4.04953,-0.3056 5.98828,-0.914063 8.1e-4,-2.5e-4 0.001,-0.0017 0.002,-0.002 0.9272,-0.287424 1.79638,-0.857749 2.69727,-1.277344 v 0.697266 c 0,1.521371 -0.42074,2.526869 -1.36915,3.457031 -0.8839,0.866912 -2.12021,1.359375 -4.12304,1.359375 h -8.49414 c -2.09974,0 -3.90385,0.341654 -5.26563,1.533203 a 1.9481998,1.9481998 0 0 0 -0.0488,0.04492 c -1.15194,1.077622 -1.78125,2.650127 -1.78125,4.240235 0,1.5747771 0.64473,3.1399806 1.80664,4.1894528 1.3552,1.2268609 3.1816,1.5917968 5.28907,1.5917968 h 8.71875 c 3.27561,0 6.32509,-0.8262559 8.99023,-2.4707031 2.57785,-1.5905865 4.58511,-3.5703035 5.89649,-5.9257815 1.33572,-2.329555 1.98242,-5.043194 1.98242,-8.019531 v -26.160156 c 1.81191,-0.07103 3.41714,-0.398697 4.61914,-1.484375 a 1.9481998,1.9481998 0 0 0 0.002,-0.002 c 1.17325,-1.06326 1.8418,-2.635403 1.8418,-4.22461 0,-1.592816 -0.66409,-3.168909 -1.84766,-4.21875 -1.33906,-1.236073 -3.15261,-1.599609 -5.24804,-1.599609 h -9.01954 a 1.9481998,1.9481998 0 0 0 -1.22461,1.222656 c -1.05421,-0.560261 -2.13621,-1.043444 -3.25976,-1.392578 -1.95262,-0.639485 -4.01285,-0.957031 -6.15234,-0.957031 z m 0,3.896484 c 1.76279,0 3.4051,0.256348 4.95507,0.765625 a 1.9481998,1.9481998 0 0 0 0.0312,0.0098 c 1.5703,0.486571 3.06788,1.23818 4.51368,2.277344 a 1.9481998,1.9481998 0 0 0 3.08398,-1.582032 v -0.34375 h 7.07227 c 1.59957,0 2.40325,0.366151 2.61523,0.564453 a 1.9481998,1.9481998 0 0 0 0.0469,0.04297 c 0.40389,0.353403 0.53711,0.613651 0.53711,1.314453 0,0.664884 -0.13352,0.94678 -0.5625,1.335938 -5.3e-4,4.83e-4 5.4e-4,0.0015 0,0.002 -0.20614,0.185 -1.03088,0.548828 -2.63671,0.548828 h -1.31641 a 1.9481998,1.9481998 0 0 0 -1.94727,1.947266 V -20.9375 c 0,2.429332 -0.50701,4.417768 -1.4707,6.09375 a 1.9481998,1.9481998 0 0 0 -0.0137,0.02539 c -0.94368,1.698611 -2.4145,3.198404 -4.54297,4.511718 -2.04513,1.2618892 -4.30803,1.8886722 -6.94531,1.8886722 h -8.71875 c -1.59957,0 -2.42767,-0.3591336 -2.67578,-0.5839843 a 1.9481998,1.9481998 0 0 0 -0.002,-0.00195 c -0.39147,-0.3535866 -0.52343,-0.6186901 -0.52343,-1.2988279 0,-0.696945 0.15623,-0.998356 0.53515,-1.361329 0.25428,-0.212458 1.07865,-0.562499 2.66602,-0.5625 h 8.49414 c 2.70743,0 5.12784,-0.783995 6.84961,-2.472656 1.65728,-1.625408 2.53906,-3.85113 2.53906,-6.238281 v -3.759766 a 1.9481998,1.9481998 0 0 0 -3.00586,-1.634765 c -1.56842,1.01486 -3.14607,1.761288 -4.74219,2.255859 a 1.9481998,1.9481998 0 0 0 -0.008,0.002 c -1.56652,0.492333 -3.16713,0.736328 -4.82812,0.736328 -4.80253,0 -8.59207,-1.516136 -11.78125,-4.658203 l -0.002,-0.002 c -6.7e-4,-6.66e-4 -0.001,-0.0013 -0.002,-0.002 -3.19259,-3.171811 -4.71875,-6.890531 -4.71875,-11.578125 0,-4.716804 1.52866,-8.435245 4.71875,-11.580078 a 1.9481998,1.9481998 0 0 0 0.004,-0.0039 c 3.1912,-3.168577 6.97979,-4.695313 11.78125,-4.695313 z m -0.0742,3.806641 c -3.39204,0 -6.49759,1.284285 -8.92383,3.68164 a 1.9481998,1.9481998 0 0 0 -0.008,0.0098 c -2.39209,2.392087 -3.68946,5.43407 -3.68946,8.742188 0,3.328988 1.2946,6.386397 3.68946,8.78125 a 1.9481998,1.9481998 0 0 0 0.0156,0.01758 c 2.42809,2.370277 5.52953,3.634765 8.91602,3.634765 3.38647,0 6.47968,-1.268426 8.88476,-3.644531 2.42178,-2.392936 3.73633,-5.454377 3.73633,-8.789062 0,-3.310561 -1.31609,-6.355028 -3.73047,-8.744141 -2.40287,-2.401872 -5.49953,-3.689453 -8.89062,-3.689453 z m 0,3.896484 c 2.47074,0 4.38275,0.792912 6.13867,2.548828 a 1.9481998,1.9481998 0 0 0 0.008,0.0078 c 1.7902,1.76888 2.57813,3.631989 2.57813,5.980469 0,2.377768 -0.79071,4.251447 -2.57813,6.017578 -1.75398,1.732853 -3.67019,2.519531 -6.14648,2.519531 -2.47376,0 -4.40793,-0.788497 -6.1875,-2.523438 -1.755,-1.760408 -2.53907,-3.636115 -2.53907,-6.013671 0,-2.352334 0.78095,-4.218654 2.54493,-5.984375 1.78176,-1.758792 3.71284,-2.552735 6.18164,-2.552735 z" id="path14" class="svg-elem-14"></path>
  </g>
</svg>
